<?xml version="1.0" encoding="utf-8"?>
<!-- Generator: Adobe Illustrator 16.0.0, SVG Export Plug-In . SVG Version: 6.00 Build 0)  -->
<!DOCTYPE svg PUBLIC "-//W3C//DTD SVG 1.1//EN" "http://www.w3.org/Graphics/SVG/1.1/DTD/svg11.dtd">
<svg version="1.1" id="Layer_1" xmlns="http://www.w3.org/2000/svg" xmlns:xlink="http://www.w3.org/1999/xlink" x="0px" y="0px"
	 width="400px" height="216.183px" viewBox="0 0 400 216.183" enable-background="new 0 0 400 216.183" xml:space="preserve">
<g>
	<path fill="#404041" d="M253.896,110.86c-1.805,0-3.192,0.646-4.159,1.934c-0.968,1.354-1.452,3.192-1.452,5.513
		c0,2.709,0.45,4.677,1.355,5.901c0.967,1.353,2.321,2.031,4.062,2.031c1.804,0,3.191-0.678,4.159-2.031
		c0.967-1.354,1.451-3.321,1.451-5.901c0-2.321-0.484-4.125-1.451-5.416C256.894,111.537,255.571,110.86,253.896,110.86z"/>
	<path fill="#404041" d="M267.262,105.819h-0.174c-3.745-17.112-18.978-29.925-37.212-29.925c-6.703,0-12.998,1.738-18.471,4.778
		c-7.376-16.449-23.882-27.914-43.078-27.914c-26.067,0-47.199,21.132-47.199,47.2c0,2.158,0.158,4.277,0.439,6.359
		c-14.792,2.573-26.048,15.442-26.048,30.969c0,17.378,14.089,31.467,31.468,31.467h140.274c17.379,0,31.468-14.089,31.468-31.467
		C298.73,119.907,284.641,105.819,267.262,105.819z M212.889,131.366h-6.964v-14.799H192.19v14.799h-6.868v-29.792
		c0-0.967,0.339-1.789,1.016-2.466c0.678-0.677,1.5-1.016,2.467-1.016h3.385v12.381h13.735V98.092h6.964V131.366z M238.664,120.726
		c0,4.58-1.193,7.579-3.579,8.996c-2.385,1.419-4.998,2.127-7.834,2.127c-2.773-0.13-5.305-0.902-7.593-2.321
		c-2.289-1.418-3.433-4.353-3.433-8.802v-15.089h6.771v16.443c0,1.547,0.451,2.676,1.354,3.385c0.903,0.71,1.935,1.064,3.096,1.064
		c1.16,0,2.208-0.354,3.143-1.064c0.935-0.709,1.403-1.838,1.403-3.385v-13.154c0-0.902,0.306-1.675,0.919-2.322
		c0.612-0.644,1.402-0.967,2.37-0.967h3.385V120.726z M263.085,128.367c-0.969,1.225-2.273,2.112-3.918,2.66
		c-1.644,0.547-3.273,0.822-4.884,0.822c-3.095,0-5.965-0.806-8.608-2.418c-2.646-1.61-3.965-4.706-3.965-9.285V97.996h3.288
		c0.902,0,1.676,0.323,2.321,0.966c0.644,0.646,0.967,1.42,0.967,2.322v7.738c0.71-1.225,1.741-2.225,3.095-2.999
		c1.161-0.644,2.579-0.967,4.256-0.967c3.03,0,5.514,1.258,7.449,3.772c1.934,2.515,2.901,5.772,2.901,9.769
		C265.986,122.597,265.019,125.853,263.085,128.367z"/>
</g>
<g>
	<linearGradient id="SVGID_1_" gradientUnits="userSpaceOnUse" x1="168.4292" y1="11.2617" x2="168.4292" y2="76.2716">
		<stop  offset="0" style="stop-color:#FFFFFF"/>
		<stop  offset="1" style="stop-color:#404041"/>
	</linearGradient>
	<path fill="url(#SVGID_1_)" d="M185.322,131.366v-29.792c0-0.967,0.339-1.789,1.016-2.466c0.678-0.677,1.5-1.016,2.467-1.016h3.385
		v12.381h13.735V98.092h2.061c-0.667-21.27-18.109-38.311-39.541-38.311c-21.856,0-39.573,17.717-39.573,39.572
		c0,21.856,17.717,39.573,39.573,39.573c8.692,0,16.724-2.81,23.253-7.561H185.322z"/>
</g>
<g>
	<g>
		<path fill="#00ADEE" d="M132.122,138.934v13.648c0,1.692,0.317,2.941,0.952,3.744c0.676,0.762,1.755,1.143,3.237,1.143
			c1.438,0,2.517-0.381,3.237-1.143c0.676-0.761,1.016-2.009,1.016-3.744v-13.648h4.507v14.156c0,2.708-0.761,4.761-2.286,6.157
			c-1.396,1.396-3.554,2.095-6.475,2.095c-2.92,0-5.078-0.698-6.475-2.095c-1.522-1.396-2.285-3.449-2.285-6.157v-11.743
			c0-0.634,0.223-1.195,0.667-1.682c0.444-0.486,0.983-0.73,1.618-0.73H132.122z"/>
		<path fill="#00ADEE" d="M153.004,153.027v7.807h-4.508v-19.55c0-0.636,0.223-1.175,0.667-1.619s0.983-0.667,1.618-0.667h7.427
			c2.326,0,4.063,0.593,5.205,1.777c1.185,1.186,1.777,2.941,1.777,5.268c0,2.201-0.572,3.936-1.715,5.205
			c-1.142,1.186-2.792,1.778-4.951,1.778H153.004z M153.004,149.091h4.379c1.185,0,2.031-0.254,2.539-0.762
			c0.55-0.465,0.825-1.27,0.825-2.413c0-0.972-0.253-1.755-0.761-2.348c-0.593-0.508-1.375-0.762-2.35-0.762h-4.632V149.091z"/>
		<path fill="#00ADEE" d="M168.616,160.833v-19.55c0-0.636,0.223-1.175,0.666-1.619c0.445-0.444,0.985-0.667,1.62-0.667h6.284
			c3.342,0,5.84,0.888,7.491,2.666c1.65,1.863,2.475,4.613,2.475,8.252c0,1.947-0.297,3.704-0.889,5.269
			c-0.678,1.608-1.566,2.835-2.666,3.682c-0.932,0.72-1.926,1.227-2.983,1.522c-1.015,0.297-2.562,0.444-4.634,0.444H168.616z
			 M172.996,156.898h3.618c2.073,0,3.596-0.55,4.57-1.65c0.93-1.016,1.397-2.793,1.397-5.332c0-2.454-0.445-4.253-1.333-5.396
			c-0.847-1.143-2.201-1.714-4.063-1.714h-4.189V156.898z"/>
		<path fill="#00ADEE" d="M198.735,138.998h3.554l7.934,21.835h-4.761l-1.46-4.507h-8.505l-1.396,4.507h-4.761l7.236-20.376
			C196.957,139.485,197.676,138.998,198.735,138.998z M199.75,143.378l-3.047,9.268h6.094L199.75,143.378z"/>
		<path fill="#00ADEE" d="M215.114,160.833V142.87h-6.475v-1.586c0-0.636,0.223-1.175,0.667-1.619
			c0.443-0.444,0.983-0.667,1.618-0.667h15.108v3.872h-6.412v17.963H215.114z"/>
		<path fill="#00ADEE" d="M229.457,160.833v-19.55c0-0.636,0.223-1.175,0.667-1.619c0.444-0.444,0.983-0.667,1.618-0.667h13.584
			v3.745H233.9v4.698h8.506v1.459c0,0.635-0.222,1.174-0.667,1.618s-0.984,0.667-1.619,0.667H233.9v5.586h11.426v4.062H229.457z"/>
		<path fill="#00ADEE" d="M248.688,160.833v-19.55c0-0.636,0.221-1.175,0.666-1.619c0.444-0.444,0.984-0.667,1.618-0.667h8.316
			c2.369,0,4.125,0.508,5.269,1.523c1.185,1.059,1.777,2.603,1.777,4.634c0,1.354-0.297,2.476-0.889,3.364
			c-0.507,0.847-1.313,1.46-2.412,1.841c0.973,0.339,1.651,0.847,2.031,1.523c0.381,0.635,0.613,1.715,0.699,3.238l0.126,2.602
			c0,0.255,0,0.53,0,0.826c0,0.296,0.021,0.571,0.063,0.825c0.127,0.762,0.381,1.248,0.761,1.459h-4.951
			c-0.212-0.422-0.339-0.866-0.38-1.333c-0.085-0.676-0.127-1.143-0.127-1.397l-0.063-2.348c-0.085-1.27-0.339-2.179-0.762-2.729
			c-0.466-0.465-1.292-0.699-2.475-0.699h-4.762v8.505H248.688z M253.194,148.52h5.27c1.142,0,1.988-0.232,2.539-0.698
			c0.549-0.465,0.825-1.184,0.825-2.158c0-0.973-0.276-1.692-0.825-2.158c-0.508-0.508-1.27-0.762-2.285-0.762h-5.523V148.52z"/>
	</g>
</g>
<polygon fill="#404041" points="134.398,40.817 87.007,33.233 111.77,82.911 "/>
<polygon fill="#00ADEE" points="301.31,176.497 348.698,168.913 309.67,129.443 "/>
<g>
	<path fill="#00ADEE" d="M332.068,92.996l0.006-0.008l-0.063-0.047C332.03,92.961,332.05,92.974,332.068,92.996z"/>
	<path fill="#00ADEE" d="M332.312,99.009c-2.77,1.517-11.495,6.36-13.612,7.38c-0.051,0.024-0.115,0.056-0.174,0.084
		c0.236,0.655,0.462,1.314,0.678,1.977c3.588-2.059,10.438-5.729,13.964-7.608C332.893,100.225,332.603,99.617,332.312,99.009z"/>
	<path fill="#00ADEE" d="M314.425,100.514c2.067-1.095,5.574-1.957,3.729-4.525c-1.844-2.568-10.977-13.342-4.684-16.092
		c1.87-0.818,3.987-1.053,6.79,4.533c2.803,5.585,2.618,11.382,6.53,9.46c0,0,2.485-2.402,4.414-1.561l-4.753-3.592
		c-14.429-21.39-38.886-35.457-66.628-35.457c-16.68,0-32.166,5.091-45.004,13.795c7.24-4.283,17.161-6.695,35.835-6.828
		c27.066-0.194,50.629,14.233,62.891,35.5l0.188,5.62C313.832,101.012,314.046,100.715,314.425,100.514z"/>
	<path fill="#00ADEE" d="M337.378,112.709l0.607-8.118c-0.196,1.356-1.632,5.063-4.022,6.401c-2.99,1.673-7.785,5.321-9.217,11.509
		c0,0-1.926-3.424-3.959-6.898c-0.958-1.637-1.937-3.339-2.625-4.511c0.916,2.553,2.459,5.992,3.677,8.597
		c0.447,3.111,0.696,6.282,0.696,9.507c0,8.016-1.432,15.71-4.054,22.868c6.993,2.817,12.126,9.077,13.791,16.239
		c5.042-10.505,7.866-22.275,7.866-34.706C340.138,126.369,339.168,119.371,337.378,112.709z"/>
</g>
<g>
	<path fill="#404041" d="M96.988,167.266c-13.307-11.602-21.249-26.871-23.447-42.349c1.677-1.957,3.508-5.005,3.439-8.974
		l-0.077,0.1c-0.408,1.489-1.028,3.142-1.964,4.411c-1.925,2.609-6.098,6.582-7.158,7.578l-0.099,3.961
		c-0.045,1.839-1.573,3.293-3.412,3.248c-1.839-0.046-3.293-1.574-3.247-3.413l0.095-3.797c-1.417-1.159-8.518-7.12-9.32-10.885
		c-0.005-0.025-0.008-0.045-0.013-0.07c0.268,3.582,2.039,6.338,3.609,8.096c2.388,13.672,8.844,26.773,19.406,37.331
		c14.356,14.352,33.406,21.145,52.208,20.391C116.388,180.341,106.019,175.139,96.988,167.266z"/>
	<path fill="#404041" d="M56.564,112.344c-0.026-2.129-0.056-6.601-0.056-6.601c0.042-1.68,1.284-3.012,2.775-2.975
		c1.491,0.036,2.667,1.429,2.625,3.11c0,0-0.208,4.312-0.325,6.451l4.409-0.013c-0.026-2.153-0.055-6.531-0.055-6.531
		c0.042-1.68,1.284-3.013,2.775-2.976s2.666,1.429,2.625,3.11c0,0-0.204,4.219-0.321,6.382l2.013-0.006
		c0.762-12.1,5.17-23.745,13.446-33.238c8.729-10.012,20.415-16.098,33.05-18.226c-3.097-4.467-4.336-10.209-2.891-15.747
		c0.132-0.506,0.29-1,0.461-1.485c-15.453,1.568-30.481,8.268-42.317,20.109c-13.445,13.451-20.255,31.018-20.441,48.642
		L56.564,112.344z"/>
</g>
<path fill="#00ADEE" d="M152.781,127.4c-1.161,1.677-2.548,2.902-4.16,3.676c-1.677,0.708-3.515,1.063-5.514,1.063
	c-4.771,0-8.544-1.579-11.317-4.739c-2.837-3.095-4.255-7.351-4.255-12.768c0-5.352,1.386-9.576,4.16-12.671
	c2.902-3.223,6.737-4.836,11.51-4.836c4.125,0,7.544,1,10.253,2.999c2.643,2.127,4.223,4.901,4.739,8.318h-4.643
	c-1.354,0-2.354-0.612-2.998-1.838c-0.453-0.773-1.098-1.482-1.935-2.128c-1.291-0.901-2.999-1.354-5.126-1.354
	c-2.773,0-4.966,1-6.577,2.999c-1.612,2.128-2.418,4.966-2.418,8.512c0,3.612,0.837,6.448,2.515,8.512
	c1.611,1.999,3.9,2.998,6.868,2.998c2.191,0,3.997-0.612,5.417-1.838c1.417-1.29,2.321-3.062,2.707-5.32h-4.061
	c-0.968,0-1.789-0.338-2.467-1.016c-0.677-0.677-1.015-1.499-1.015-2.466v-2.225h13.832v18.088h-1.838
	c-1.806,0-2.935-0.903-3.386-2.708L152.781,127.4z"/>
<path fill="#00ADEE" d="M162.307,98.092h3.481c0.903,0,1.676,0.324,2.323,0.968c0.643,0.645,0.967,1.419,0.967,2.321v2.031h-6.771
	V98.092z M162.307,105.637h3.481c0.903,0,1.676,0.324,2.323,0.967c0.643,0.646,0.967,1.419,0.967,2.322v22.44h-6.771V105.637z"/>
<path fill="#00ADEE" d="M182.761,131.366c-2.128,0.128-4.434,0.097-6.916-0.097c-2.483-0.193-3.723-1.773-3.723-4.74V98.092h3.481
	c0.837,0,1.579,0.324,2.225,0.968c0.644,0.645,0.968,1.419,0.968,2.321v4.353h3.965v1.354c0,0.967-0.323,1.758-0.967,2.37
	c-0.645,0.613-1.418,0.919-2.321,0.919h-0.677v14.314c0,1.098,0.644,1.645,1.935,1.645h2.03V131.366z"/>
</svg>
